<svg id="rocket" xmlns="http://www.w3.org/2000/svg" width="578.97" height="656.625"><defs><style>.cls-1{fill:#c22419}.cls-1,.cls-3,.cls-4,.cls-6{fill-rule:evenodd}.cls-2,.cls-4{fill:#e0483d}.cls-3{fill:#e75b4c}.cls-6,.cls-8{fill:#fff}</style></defs><g id="body"><path class="cls-1" d="M1288.02 559.488s-8.32 4.089-3.5 68.669c.35 4.772-5.19 2.845-8.17.965-3.31-2.083-129.76-68.011-89.04-144.4s100.71 74.766 100.71 74.766z" transform="translate(-1035.66 -177.688)"/><circle class="cls-2" cx="118.28" cy="439.062" r="118.28"/><path class="cls-3" d="M1186.21 524.012c-.59-11.818 6.62-8.849 8.31-8.023 3.94 1.923-1.92 5.206 1.58 9.881 5.68 7.593-8.81 20.052-9.89-1.858z" transform="translate(-1035.66 -177.688)"/><path id="Shape_1_copy_3" data-name="Shape 1 copy 3" class="cls-1" d="M1400.13 457.479s4.88-7.9 68.77 3.009c4.72.806 3.33-4.9 1.74-8.051-1.76-3.494-55.33-135.737-135.35-102.382s64.84 107.424 64.84 107.424z" transform="translate(-1035.66 -177.688)"/><path id="Shape_3_copy" data-name="Shape 3 copy" class="cls-4" d="M1369.76 354.641c16.81 3.178 12.99 9.87 11.9 11.4-2.52 3.558-7.52-3.709-13.99-1.5-10.5 3.579-29.07-15.789 2.09-9.9z" transform="translate(-1035.66 -177.688)"/><path id="Shape_1_copy" data-name="Shape 1 copy" class="cls-1" d="M1293.58 562.5c-10.51-5.554-260.83-136.777-243.66-378.989.34-4.793 3.13-5.277 3.13-5.277l307.74 346.934S1309.67 571 1293.58 562.5zm110.65-98.049c-4.27-11.1-104.95-275.312-347.69-286.77-4.81-.227-5.62 2.483-5.62 2.483l308.23 346.681s51.62-45.396 45.08-62.39z" transform="translate(-1035.66 -177.688)"/><path id="Shape_1_copy_2" data-name="Shape 1 copy 2" class="cls-4" d="M1288.69 568.745c-9.85-5.2-244.32-128.154-228.27-355.018.31-4.489 2.92-4.942 2.92-4.942l288.3 325.005s-47.87 42.92-62.95 34.955zm103.62-91.818c-4-10.4-98.34-257.888-325.7-268.66-4.5-.213-5.26 2.325-5.26 2.325L1350.1 535.36s48.34-42.515 42.21-58.433z" transform="translate(-1035.66 -177.688)"/><circle cx="405.935" cy="441.25" r="163.565" fill="#c22419"/><path class="cls-3" d="M1275.32 522.772S1076.88 390.7 1062.36 260.521c-.89-7.943 29.84 114.563 217.45 258.176 2.17 1.664-4.49 4.075-4.49 4.075z" transform="translate(-1035.66 -177.688)"/><path class="cls-1" d="M1133.73 292.579a85.767 85.767 0 11-5.77 121.149 85.764 85.764 0 015.77-121.149z" transform="translate(-1035.66 -177.688)"/><circle id="Ellipse_3_copy" data-name="Ellipse 3 copy" class="cls-2" cx="152.45" cy="181.359" r="85.77"/><path id="Ellipse_3_copy_2" data-name="Ellipse 3 copy 2" class="cls-6" d="M1147.92 314.591a60.1 60.1 0 11-4.05 84.892 60.093 60.093 0 014.05-84.892z" transform="translate(-1035.66 -177.688)"/><path id="Rounded_Rectangle_1" data-name="Rounded Rectangle 1" d="M1137.88 339.646l6.61-10.528a6.376 6.376 0 0110.8 6.782l-6.62 10.53a6.373 6.373 0 11-10.79-6.784z" transform="translate(-1035.66 -177.688)" fill="#f1f4f9" fill-rule="evenodd"/></g><g id="air"><path class="cls-6" d="M1338.7 641.953a87.951 87.951 0 11-5.92 124.238 87.951 87.951 0 015.92-124.238z" transform="translate(-1035.66 -177.688)"/><circle id="Ellipse_4_copy_2" data-name="Ellipse 4 copy 2" class="cls-8" cx="481.81" cy="505.531" r="87.94"/><path id="Ellipse_4_copy_3" data-name="Ellipse 4 copy 3" class="cls-6" d="M1363.96 589.791a54.779 54.779 0 11-3.69 77.382 54.777 54.777 0 013.69-77.382z" transform="translate(-1035.66 -177.688)"/><path id="Ellipse_4_copy" data-name="Ellipse 4 copy" class="cls-6" d="M1448.36 532.087a70.107 70.107 0 11-4.72 99.037 70.114 70.114 0 014.72-99.037z" transform="translate(-1035.66 -177.688)"/><circle class="cls-8" cx="391.37" cy="320.469" r="14.81"/><circle id="Ellipse_5_copy" data-name="Ellipse 5 copy" class="cls-8" cx="400.17" cy="635.75" r="20.86"/><circle id="Ellipse_5_copy_2" data-name="Ellipse 5 copy 2" class="cls-8" cx="567.405" cy="418.875" r="11.565"/><path id="Shape_4_copy" data-name="Shape 4 copy" class="cls-6" d="M1334.18 526.756l56.66 132.938 59.98-29.333-102.99-116.407zm27.96-24.985l126.74 73.044-38.06 55.546-102.99-116.407z" transform="translate(-1035.66 -177.688)"/></g></svg>